<svg xmlns="http://www.w3.org/2000/svg" width="58" height="58" viewBox="13 13 74 74">
    <path id="linkedin-2" data-name="linkedin" d="M65,32H4.984A5.022,5.022,0,0,0,0,37.047V96.953A5.022,5.022,0,0,0,4.984,102H65a5.035,5.035,0,0,0,5-5.047V37.047A5.035,5.035,0,0,0,65,32ZM21.156,92H10.781V58.594H21.172V92ZM15.969,54.031a6.016,6.016,0,1,1,6.016-6.016,6.016,6.016,0,0,1-6.016,6.016ZM60.047,92H49.672V75.75c0-3.875-.078-8.859-5.391-8.859-5.406,0-6.234,4.219-6.234,8.578V92H27.672V58.594h9.953v4.563h.141a10.928,10.928,0,0,1,9.828-5.391c10.5,0,12.453,6.922,12.453,15.922Z" transform="translate(15 -17)" fill="#1e2022" />
</svg>
